<?xml version="1.0" encoding="UTF-8"?>
<svg xmlns="http://www.w3.org/2000/svg" xmlns:xlink="http://www.w3.org/1999/xlink" width="15px" height="15px" viewBox="0 0 15 15" version="1.1">
<g id="surface1">
<path style=" stroke:none;fill-rule:nonzero;fill:rgb(100%,100%,100%);fill-opacity:1;" d="M 15 6.5625 L 13.125 6.5625 L 13.125 4.6875 L 12.1875 4.6875 L 12.1875 6.5625 L 10.3125 6.5625 L 10.3125 7.5 L 12.1875 7.5 L 12.1875 9.375 L 13.125 9.375 L 13.125 7.5 L 15 7.5 Z M 15 6.5625 "/>
<path style=" stroke:none;fill-rule:nonzero;fill:rgb(100%,100%,100%);fill-opacity:1;" d="M 4.6875 8.4375 L 7.339844 8.4375 C 6.953125 9.527344 5.910156 10.3125 4.6875 10.3125 C 3.136719 10.3125 1.875 9.050781 1.875 7.5 C 1.875 5.949219 3.136719 4.6875 4.6875 4.6875 C 5.359375 4.6875 6.007812 4.929688 6.507812 5.367188 L 7.742188 3.953125 C 6.898438 3.21875 5.8125 2.8125 4.6875 2.8125 C 2.101562 2.8125 0 4.914062 0 7.5 C 0 10.085938 2.101562 12.1875 4.6875 12.1875 C 7.273438 12.1875 9.375 10.085938 9.375 7.5 L 9.375 6.5625 L 4.6875 6.5625 Z M 4.6875 8.4375 "/>
</g>
</svg>
