<?xml version="1.0" encoding="UTF-8"?>
<svg xmlns="http://www.w3.org/2000/svg" xmlns:xlink="http://www.w3.org/1999/xlink" width="15px" height="15px" viewBox="0 0 15 15" version="1.1">
<g id="surface1">
<path style=" stroke:none;fill-rule:nonzero;fill:rgb(100%,100%,100%);fill-opacity:1;" d="M 13.914062 11.394531 C 13.921875 11.371094 13.925781 11.347656 13.925781 11.324219 L 13.925781 3.382812 C 13.925781 3.359375 13.921875 3.335938 13.914062 3.316406 C 13.914062 3.3125 13.914062 3.308594 13.910156 3.304688 C 13.902344 3.28125 13.886719 3.257812 13.871094 3.238281 C 13.867188 3.234375 13.867188 3.234375 13.867188 3.234375 C 13.867188 3.230469 13.867188 3.230469 13.863281 3.230469 C 13.847656 3.210938 13.824219 3.195312 13.800781 3.183594 C 13.796875 3.183594 13.796875 3.179688 13.792969 3.179688 C 13.769531 3.167969 13.746094 3.164062 13.71875 3.160156 C 13.714844 3.160156 13.710938 3.160156 13.710938 3.160156 C 13.707031 3.160156 13.703125 3.160156 13.703125 3.160156 L 1.265625 3.160156 C 1.261719 3.160156 1.261719 3.160156 1.257812 3.160156 C 1.253906 3.160156 1.253906 3.160156 1.25 3.160156 C 1.222656 3.164062 1.195312 3.167969 1.171875 3.179688 C 1.171875 3.179688 1.171875 3.179688 1.167969 3.183594 C 1.144531 3.195312 1.121094 3.210938 1.101562 3.230469 C 1.101562 3.230469 1.101562 3.230469 1.101562 3.234375 C 1.097656 3.234375 1.097656 3.234375 1.097656 3.238281 C 1.078125 3.257812 1.066406 3.28125 1.054688 3.304688 C 1.054688 3.308594 1.054688 3.3125 1.054688 3.316406 C 1.046875 3.335938 1.039062 3.359375 1.039062 3.382812 L 1.039062 11.324219 C 1.039062 11.351562 1.046875 11.371094 1.054688 11.394531 C 1.054688 11.398438 1.054688 11.402344 1.054688 11.402344 C 1.066406 11.429688 1.078125 11.453125 1.097656 11.472656 C 1.097656 11.472656 1.097656 11.476562 1.101562 11.476562 C 1.101562 11.476562 1.101562 11.476562 1.101562 11.480469 C 1.109375 11.488281 1.117188 11.492188 1.128906 11.5 C 1.128906 11.503906 1.132812 11.507812 1.136719 11.507812 C 1.148438 11.515625 1.160156 11.523438 1.167969 11.527344 C 1.171875 11.527344 1.175781 11.53125 1.175781 11.53125 C 1.203125 11.542969 1.234375 11.550781 1.265625 11.550781 L 13.703125 11.550781 C 13.734375 11.550781 13.761719 11.542969 13.789062 11.53125 C 13.792969 11.527344 13.796875 11.527344 13.800781 11.523438 C 13.8125 11.519531 13.820312 11.515625 13.828125 11.507812 C 13.832031 11.507812 13.835938 11.503906 13.839844 11.5 C 13.847656 11.492188 13.855469 11.488281 13.863281 11.480469 C 13.863281 11.476562 13.867188 11.476562 13.867188 11.476562 C 13.867188 11.476562 13.867188 11.472656 13.871094 11.472656 C 13.886719 11.453125 13.902344 11.429688 13.910156 11.402344 C 13.914062 11.398438 13.914062 11.398438 13.914062 11.394531 Z M 1.488281 3.890625 L 5.261719 7.339844 L 1.488281 10.8125 Z M 9.222656 7.171875 C 9.207031 7.179688 9.191406 7.1875 9.179688 7.203125 C 9.175781 7.207031 9.171875 7.214844 9.167969 7.222656 L 7.484375 8.761719 L 1.84375 3.609375 L 13.125 3.609375 Z M 5.59375 7.644531 L 7.332031 9.230469 C 7.375 9.269531 7.429688 9.289062 7.484375 9.289062 C 7.539062 9.289062 7.59375 9.269531 7.632812 9.230469 L 9.351562 7.664062 L 13.121094 11.101562 L 1.839844 11.101562 Z M 9.683594 7.359375 L 13.476562 3.890625 L 13.476562 10.816406 Z M 9.683594 7.359375 "/>
</g>
</svg>
