<?xml version="1.0" encoding="UTF-8"?>
<svg xmlns="http://www.w3.org/2000/svg" xmlns:xlink="http://www.w3.org/1999/xlink" width="15px" height="15px" viewBox="0 0 15 15" version="1.1">
<g id="surface1">
<path style=" stroke:none;fill-rule:nonzero;fill:rgb(100%,100%,100%);fill-opacity:1;" d="M 15 2.847656 C 14.441406 3.09375 13.847656 3.257812 13.226562 3.335938 C 13.867188 2.953125 14.351562 2.355469 14.582031 1.636719 C 13.988281 1.988281 13.332031 2.238281 12.632812 2.378906 C 12.066406 1.777344 11.261719 1.40625 10.382812 1.40625 C 8.683594 1.40625 7.3125 2.789062 7.3125 4.480469 C 7.3125 4.726562 7.332031 4.960938 7.382812 5.183594 C 4.828125 5.058594 2.5625 3.832031 1.042969 1.96875 C 0.777344 2.425781 0.625 2.953125 0.625 3.519531 C 0.625 4.585938 1.171875 5.53125 1.988281 6.078125 C 1.496094 6.066406 1.011719 5.925781 0.601562 5.699219 C 0.601562 5.707031 0.601562 5.71875 0.601562 5.730469 C 0.601562 7.226562 1.664062 8.46875 3.0625 8.753906 C 2.8125 8.820312 2.539062 8.855469 2.257812 8.855469 C 2.0625 8.855469 1.863281 8.84375 1.675781 8.800781 C 2.074219 10.019531 3.203125 10.914062 4.546875 10.945312 C 3.503906 11.761719 2.175781 12.257812 0.734375 12.257812 C 0.484375 12.257812 0.242188 12.246094 0 12.214844 C 1.363281 13.09375 2.976562 13.59375 4.71875 13.59375 C 10.375 13.59375 13.46875 8.90625 13.46875 4.84375 C 13.46875 4.707031 13.464844 4.574219 13.457031 4.445312 C 14.070312 4.011719 14.582031 3.472656 15 2.847656 Z M 15 2.847656 "/>
</g>
</svg>
